<?xml version="1.0" encoding="utf-8"?>
<!-- Generator: Adobe Illustrator 19.0.0, SVG Export Plug-In . SVG Version: 6.00 Build 0)  -->
<svg version="1.1" xmlns="http://www.w3.org/2000/svg" xmlns:xlink="http://www.w3.org/1999/xlink" x="0px" y="0px"
	 viewBox="0 0 54.4 50.5" style="enable-background:new 0 0 54.4 50.5;" xml:space="preserve">
<style type="text/css">
	.st0{fill:#4C9ED7;}
</style>
<g id="Layer_1">
	<g id="XMLID_3_">
		<path id="XMLID_43_" class="st0" d="M44.5,35.2c-0.5,0.1-1-0.2-1.5-0.3c-0.9-0.1-1.7,0.2-2.4,0.9c-0.6,0.6-1.1,1.2-1.8,1.8
			c-1.1,0.9-1.4,1.9-1,3.3c0.6,2.2-1,4.6-3.3,4.6c-1.4,0-2.6-0.5-3.2-1.7c-0.8-1.4-1.9-1.9-3.4-1.8c-0.8,0.1-1.6,0-2.4,0
			c-1.1,0-2,0.5-2.5,1.5c-0.8,1.5-2.5,2.2-4.1,1.9c-1.6-0.4-2.7-1.8-2.8-3.5c0-0.4,0.1-0.8,0.2-1.2c0.4-1.2,0.1-2.2-0.8-3
			c-0.7-0.6-1.3-1.3-1.9-2c-0.8-0.9-1.7-1.2-2.9-0.8c-2.1,0.6-4.3-0.7-4.8-2.8c-0.3-1.5,0.5-3.1,1.8-3.9c1.1-0.6,1.6-1.5,1.6-2.8
			c0-0.9,0-1.9,0-2.8c0-1.2-0.5-2.1-1.5-2.7c-1.4-0.7-2.1-2.4-1.8-3.9c0.3-1.5,1.5-2.7,3.1-2.9c0.6-0.1,1.1,0,1.6,0.1
			c1.2,0.4,2.2,0.1,3.1-0.8c0.5-0.6,1-1.1,1.6-1.6c1.1-0.9,1.5-2,1.1-3.4c-0.5-1.8,0.5-3.7,2.2-4.4c1.7-0.6,3.6,0.1,4.5,1.7
			c0.6,1.1,1.4,1.6,2.6,1.5c1,0,2,0,3,0c1.2,0,2.1-0.4,2.6-1.5c0.9-1.7,3-2.4,4.8-1.6c1.6,0.7,2.5,2.8,1.9,4.5c-0.3,1-0.1,2,0.6,2.7
			c0.8,0.7,1.5,1.5,2.2,2.3c0.8,0.8,1.7,1.1,2.8,0.7c2.3-0.7,4.7,0.9,4.8,3.2c0.1,1.4-0.4,2.6-1.7,3.3c-1.5,0.8-2,1.9-1.8,3.5
			c0.1,0.7,0,1.5,0,2.2c0,1.2,0.5,2.1,1.5,2.7c2.1,1.2,2.5,3.9,0.9,5.6C46.6,34.8,45.7,35.2,44.5,35.2z M11.1,33.8
			c1.3,0,2.3,0.4,3,1.3c0.6,0.7,1.3,1.4,2,2c1.1,1.1,1.4,2.4,0.9,3.8c-0.4,1.4,0.1,2.7,1.5,3.3c1.4,0.6,2.8,0.1,3.5-1.2
			c0.7-1.3,1.9-2,3.4-2c1,0,2,0,3,0c1.5,0,2.7,0.7,3.4,2c0.2,0.4,0.5,0.8,0.9,1.1c0.9,0.6,2.2,0.6,3.2-0.2c0.9-0.7,1.3-1.8,0.9-2.9
			c-0.4-1.5-0.1-2.8,1-3.9c0.7-0.7,1.4-1.3,2.1-2c1.1-1.1,2.4-1.4,3.9-1c1.4,0.4,2.8-0.2,3.3-1.5c0.6-1.4,0.1-2.8-1.2-3.5
			c-1.4-0.8-2-2-2-3.5c0-1,0-1.9,0-2.9c0-0.2,0-0.3,0-0.5c0.2-1.3,0.8-2.3,2-3c1.3-0.7,1.8-2.1,1.2-3.4c-0.6-1.3-1.9-2-3.4-1.6
			c-1.5,0.4-2.8,0-3.9-1.1c-0.6-0.7-1.3-1.4-2-2c-1.1-1.1-1.4-2.4-1-3.9c0.4-1.4-0.2-2.7-1.5-3.3c-1.3-0.6-2.8-0.1-3.5,1.1
			c-0.8,1.4-2,2.1-3.6,2c-0.9,0-1.8,0-2.7,0c-0.3,0-0.6,0-0.9-0.1c-1.2-0.3-2.1-0.9-2.6-2c-0.5-1-1.3-1.5-2.4-1.5
			c-2,0.1-3.1,1.9-2.5,3.7c0.5,1.4,0,2.7-1,3.8c-0.7,0.7-1.4,1.3-2,2c-1.1,1.1-2.4,1.5-3.9,1c-1.4-0.4-2.7,0.1-3.3,1.5
			c-0.6,1.4-0.2,2.8,1.1,3.5c1.4,0.8,2,1.9,2,3.5c0,1,0,1.9,0,2.9c0,1.6-0.7,2.7-2.1,3.5c-1.3,0.7-1.8,2-1.2,3.4
			c0.6,1.4,1.9,2,3.3,1.6C10.4,33.8,10.8,33.8,11.1,33.8z"/>
		<path id="XMLID_37_" class="st0" d="M27,14.4c5.3,0,9.6,4.4,9.6,9.7c0,5.2-4.4,9.6-9.7,9.6c-5.2,0-9.6-4.4-9.6-9.7
			C17.4,18.8,21.8,14.4,27,14.4z M18.3,24.1c0,4.9,3.8,8.7,8.7,8.7c4.9,0,8.7-3.8,8.7-8.7c0-4.9-3.8-8.7-8.7-8.7
			C22.1,15.4,18.3,19.2,18.3,24.1z"/>
	</g>
</g>
<g id="Layer_2">
</g>
</svg>
